<svg xmlns="http://www.w3.org/2000/svg" viewBox="0 0 24 24" fill="none" stroke="currentColor" stroke-width="2" stroke-linecap="round" stroke-linejoin="round">
  <!-- Clipboard body -->
  <path d="M16 4h2a2 2 0 0 1 2 2v14a2 2 0 0 1-2 2H6a2 2 0 0 1-2-2V6a2 2 0 0 1 2-2h2"/>
  <rect x="8" y="2" width="8" height="4" rx="1" ry="1"/>
  <!-- Checklist lines -->
  <line x1="9" y1="12" x2="9.01" y2="12"/>
  <line x1="13" y1="12" x2="17" y2="12"/>
  <line x1="9" y1="16" x2="9.01" y2="16"/>
  <line x1="13" y1="16" x2="17" y2="16"/>
  <!-- Checkmarks -->
  <polyline points="8.5 11.5 9 12 10 11"/>
  <polyline points="8.5 15.5 9 16 10 15"/>
</svg>
